<mxfile host="app.diagrams.net" modified="2022-05-15T10:01:59.945Z" agent="5.0 (Windows)" etag="3TIb0mJ2mA272-tCf8bh" version="17.4.2" type="github">
  <diagram id="NdA9KL4M1A4Z1aguvm-m" name="Page-1">
    <mxGraphModel dx="1153" dy="596" grid="1" gridSize="10" guides="1" tooltips="1" connect="1" arrows="1" fold="1" page="1" pageScale="1" pageWidth="827" pageHeight="1169" math="0" shadow="0">
      <root>
        <mxCell id="0" />
        <mxCell id="1" parent="0" />
        <mxCell id="F4AEaUo94V6aJ_GK0tAD-5" value="yes" style="edgeStyle=orthogonalEdgeStyle;rounded=0;orthogonalLoop=1;jettySize=auto;html=1;" edge="1" parent="1" source="F4AEaUo94V6aJ_GK0tAD-2" target="F4AEaUo94V6aJ_GK0tAD-4">
          <mxGeometry relative="1" as="geometry" />
        </mxCell>
        <mxCell id="F4AEaUo94V6aJ_GK0tAD-7" value="no" style="edgeStyle=orthogonalEdgeStyle;rounded=0;orthogonalLoop=1;jettySize=auto;html=1;entryX=0.5;entryY=0;entryDx=0;entryDy=0;entryPerimeter=0;" edge="1" parent="1" source="F4AEaUo94V6aJ_GK0tAD-2" target="F4AEaUo94V6aJ_GK0tAD-6">
          <mxGeometry relative="1" as="geometry">
            <mxPoint x="230" y="329" as="sourcePoint" />
            <mxPoint x="230" y="369" as="targetPoint" />
          </mxGeometry>
        </mxCell>
        <mxCell id="F4AEaUo94V6aJ_GK0tAD-2" value="Wall in front?" style="strokeWidth=2;html=1;shape=mxgraph.flowchart.decision;whiteSpace=wrap;" vertex="1" parent="1">
          <mxGeometry x="160" y="190" width="110" height="110" as="geometry" />
        </mxCell>
        <mxCell id="F4AEaUo94V6aJ_GK0tAD-30" value="" style="edgeStyle=orthogonalEdgeStyle;rounded=0;orthogonalLoop=1;jettySize=auto;html=1;" edge="1" parent="1" source="F4AEaUo94V6aJ_GK0tAD-4" target="F4AEaUo94V6aJ_GK0tAD-28">
          <mxGeometry relative="1" as="geometry" />
        </mxCell>
        <mxCell id="F4AEaUo94V6aJ_GK0tAD-4" value="Stop" style="whiteSpace=wrap;html=1;strokeWidth=2;" vertex="1" parent="1">
          <mxGeometry x="320" y="215" width="120" height="60" as="geometry" />
        </mxCell>
        <mxCell id="F4AEaUo94V6aJ_GK0tAD-9" value="" style="edgeStyle=orthogonalEdgeStyle;rounded=0;orthogonalLoop=1;jettySize=auto;html=1;" edge="1" parent="1" source="F4AEaUo94V6aJ_GK0tAD-6" target="F4AEaUo94V6aJ_GK0tAD-8">
          <mxGeometry relative="1" as="geometry" />
        </mxCell>
        <mxCell id="F4AEaUo94V6aJ_GK0tAD-27" value="yes" style="edgeLabel;html=1;align=center;verticalAlign=middle;resizable=0;points=[];" vertex="1" connectable="0" parent="F4AEaUo94V6aJ_GK0tAD-9">
          <mxGeometry x="-0.1348" relative="1" as="geometry">
            <mxPoint as="offset" />
          </mxGeometry>
        </mxCell>
        <mxCell id="F4AEaUo94V6aJ_GK0tAD-40" value="" style="edgeStyle=orthogonalEdgeStyle;rounded=0;orthogonalLoop=1;jettySize=auto;html=1;" edge="1" parent="1" source="F4AEaUo94V6aJ_GK0tAD-6" target="F4AEaUo94V6aJ_GK0tAD-39">
          <mxGeometry relative="1" as="geometry" />
        </mxCell>
        <mxCell id="F4AEaUo94V6aJ_GK0tAD-41" value="no" style="edgeLabel;html=1;align=center;verticalAlign=middle;resizable=0;points=[];" vertex="1" connectable="0" parent="F4AEaUo94V6aJ_GK0tAD-40">
          <mxGeometry x="-0.236" y="1" relative="1" as="geometry">
            <mxPoint as="offset" />
          </mxGeometry>
        </mxCell>
        <mxCell id="F4AEaUo94V6aJ_GK0tAD-6" value="Is a stop line detected?" style="strokeWidth=2;html=1;shape=mxgraph.flowchart.decision;whiteSpace=wrap;" vertex="1" parent="1">
          <mxGeometry x="160" y="340" width="110" height="110" as="geometry" />
        </mxCell>
        <mxCell id="F4AEaUo94V6aJ_GK0tAD-36" value="" style="edgeStyle=orthogonalEdgeStyle;rounded=0;orthogonalLoop=1;jettySize=auto;html=1;" edge="1" parent="1" source="F4AEaUo94V6aJ_GK0tAD-8" target="F4AEaUo94V6aJ_GK0tAD-35">
          <mxGeometry relative="1" as="geometry" />
        </mxCell>
        <mxCell id="F4AEaUo94V6aJ_GK0tAD-8" value="Stop" style="whiteSpace=wrap;html=1;strokeWidth=2;" vertex="1" parent="1">
          <mxGeometry x="320" y="365" width="120" height="60" as="geometry" />
        </mxCell>
        <mxCell id="F4AEaUo94V6aJ_GK0tAD-32" value="" style="edgeStyle=orthogonalEdgeStyle;rounded=0;orthogonalLoop=1;jettySize=auto;html=1;" edge="1" parent="1" source="F4AEaUo94V6aJ_GK0tAD-28" target="F4AEaUo94V6aJ_GK0tAD-31">
          <mxGeometry relative="1" as="geometry" />
        </mxCell>
        <mxCell id="F4AEaUo94V6aJ_GK0tAD-34" value="" style="edgeStyle=orthogonalEdgeStyle;rounded=0;orthogonalLoop=1;jettySize=auto;html=1;exitX=0.5;exitY=1;exitDx=0;exitDy=0;exitPerimeter=0;entryX=0;entryY=0.5;entryDx=0;entryDy=0;" edge="1" parent="1" source="F4AEaUo94V6aJ_GK0tAD-28" target="F4AEaUo94V6aJ_GK0tAD-33">
          <mxGeometry relative="1" as="geometry" />
        </mxCell>
        <mxCell id="F4AEaUo94V6aJ_GK0tAD-28" value="Turn possible?" style="strokeWidth=2;html=1;shape=mxgraph.flowchart.decision;whiteSpace=wrap;" vertex="1" parent="1">
          <mxGeometry x="490" y="192.5" width="100" height="105" as="geometry" />
        </mxCell>
        <mxCell id="F4AEaUo94V6aJ_GK0tAD-31" value="Turn 90deg" style="whiteSpace=wrap;html=1;strokeWidth=2;" vertex="1" parent="1">
          <mxGeometry x="630" y="215" width="120" height="60" as="geometry" />
        </mxCell>
        <mxCell id="F4AEaUo94V6aJ_GK0tAD-33" value="180deg Turn back" style="whiteSpace=wrap;html=1;strokeWidth=2;" vertex="1" parent="1">
          <mxGeometry x="630" y="290" width="120" height="60" as="geometry" />
        </mxCell>
        <mxCell id="F4AEaUo94V6aJ_GK0tAD-38" value="" style="edgeStyle=orthogonalEdgeStyle;rounded=0;orthogonalLoop=1;jettySize=auto;html=1;" edge="1" parent="1" source="F4AEaUo94V6aJ_GK0tAD-35" target="F4AEaUo94V6aJ_GK0tAD-37">
          <mxGeometry relative="1" as="geometry" />
        </mxCell>
        <mxCell id="F4AEaUo94V6aJ_GK0tAD-35" value="Delay" style="strokeWidth=2;html=1;shape=mxgraph.flowchart.delay;whiteSpace=wrap;" vertex="1" parent="1">
          <mxGeometry x="490" y="365" width="100" height="60" as="geometry" />
        </mxCell>
        <mxCell id="F4AEaUo94V6aJ_GK0tAD-37" value="Drive Forward" style="whiteSpace=wrap;html=1;strokeWidth=2;" vertex="1" parent="1">
          <mxGeometry x="630" y="365" width="120" height="60" as="geometry" />
        </mxCell>
        <mxCell id="F4AEaUo94V6aJ_GK0tAD-43" value="" style="edgeStyle=orthogonalEdgeStyle;rounded=0;orthogonalLoop=1;jettySize=auto;html=1;" edge="1" parent="1" source="F4AEaUo94V6aJ_GK0tAD-39" target="F4AEaUo94V6aJ_GK0tAD-42">
          <mxGeometry relative="1" as="geometry" />
        </mxCell>
        <mxCell id="F4AEaUo94V6aJ_GK0tAD-44" value="yes" style="edgeLabel;html=1;align=center;verticalAlign=middle;resizable=0;points=[];" vertex="1" connectable="0" parent="F4AEaUo94V6aJ_GK0tAD-43">
          <mxGeometry x="-0.2225" y="1" relative="1" as="geometry">
            <mxPoint as="offset" />
          </mxGeometry>
        </mxCell>
        <mxCell id="F4AEaUo94V6aJ_GK0tAD-54" value="" style="edgeStyle=orthogonalEdgeStyle;rounded=0;orthogonalLoop=1;jettySize=auto;html=1;entryX=0;entryY=0.5;entryDx=0;entryDy=0;exitX=0.5;exitY=1;exitDx=0;exitDy=0;exitPerimeter=0;" edge="1" parent="1" source="F4AEaUo94V6aJ_GK0tAD-39" target="F4AEaUo94V6aJ_GK0tAD-45">
          <mxGeometry relative="1" as="geometry">
            <mxPoint x="217.5" y="735" as="targetPoint" />
          </mxGeometry>
        </mxCell>
        <mxCell id="F4AEaUo94V6aJ_GK0tAD-55" value="no" style="edgeLabel;html=1;align=center;verticalAlign=middle;resizable=0;points=[];" vertex="1" connectable="0" parent="F4AEaUo94V6aJ_GK0tAD-54">
          <mxGeometry x="0.1211" y="-1" relative="1" as="geometry">
            <mxPoint as="offset" />
          </mxGeometry>
        </mxCell>
        <mxCell id="F4AEaUo94V6aJ_GK0tAD-39" value="Is a turn possible" style="strokeWidth=2;html=1;shape=mxgraph.flowchart.decision;whiteSpace=wrap;" vertex="1" parent="1">
          <mxGeometry x="165" y="490" width="105" height="110" as="geometry" />
        </mxCell>
        <mxCell id="F4AEaUo94V6aJ_GK0tAD-50" value="" style="edgeStyle=orthogonalEdgeStyle;rounded=0;orthogonalLoop=1;jettySize=auto;html=1;" edge="1" parent="1" source="F4AEaUo94V6aJ_GK0tAD-42" target="F4AEaUo94V6aJ_GK0tAD-49">
          <mxGeometry relative="1" as="geometry" />
        </mxCell>
        <mxCell id="F4AEaUo94V6aJ_GK0tAD-42" value="go forward to the side-streets center" style="whiteSpace=wrap;html=1;strokeWidth=2;" vertex="1" parent="1">
          <mxGeometry x="310" y="515" width="120" height="60" as="geometry" />
        </mxCell>
        <mxCell id="F4AEaUo94V6aJ_GK0tAD-45" value="Drive Forward (PID controlled)" style="whiteSpace=wrap;html=1;strokeWidth=2;" vertex="1" parent="1">
          <mxGeometry x="310" y="600" width="120" height="60" as="geometry" />
        </mxCell>
        <mxCell id="F4AEaUo94V6aJ_GK0tAD-52" value="" style="edgeStyle=orthogonalEdgeStyle;rounded=0;orthogonalLoop=1;jettySize=auto;html=1;" edge="1" parent="1" source="F4AEaUo94V6aJ_GK0tAD-49" target="F4AEaUo94V6aJ_GK0tAD-51">
          <mxGeometry relative="1" as="geometry" />
        </mxCell>
        <mxCell id="F4AEaUo94V6aJ_GK0tAD-49" value="Turn on the spot" style="whiteSpace=wrap;html=1;strokeWidth=2;" vertex="1" parent="1">
          <mxGeometry x="480" y="515" width="120" height="60" as="geometry" />
        </mxCell>
        <mxCell id="F4AEaUo94V6aJ_GK0tAD-51" value="Drive forward into the street" style="whiteSpace=wrap;html=1;strokeWidth=2;" vertex="1" parent="1">
          <mxGeometry x="630" y="515" width="120" height="60" as="geometry" />
        </mxCell>
      </root>
    </mxGraphModel>
  </diagram>
</mxfile>
